<?xml version="1.0" encoding="utf-8"?>
<!-- Generator: Adobe Illustrator 24.3.0, SVG Export Plug-In . SVG Version: 6.00 Build 0)  -->
<svg version="1.1" id="Layer_1" xmlns="http://www.w3.org/2000/svg" xmlns:xlink="http://www.w3.org/1999/xlink" x="0px" y="0px"
	 viewBox="0 0 2328 1337" style="enable-background:new 0 0 2328 1337;" xml:space="preserve">
<style type="text/css">
	.st0{fill:#3A3A3A;}
	.st1{fill:#111111;stroke:#111111;stroke-width:0.5;stroke-miterlimit:10;}
	.st2{fill:#3A3A3A;stroke:#111111;stroke-miterlimit:10;}
</style>
<g transform="matrix( 1, 0, 0, 1, 0,0) ">
	<g>
		<g id="Layer0_0_FILL">
			<g>
				<path class="st0" d="M664.2,807.1l8.3,512.5l449.9-18.9L1047,821.8L664.2,807.1 M710.3,857.8l306.9,16.8l56.6,395l-350.9,8.3
					L710.3,857.8 M950.2,974.8l-145,14.7v147l153.3,29.3L950.2,974.8 M836,1019.7l81.6-4.2l4.2,103.5l-83.7-8.3L836,1019.7
					 M604.8,395.7L308.1,364l145.5,498.8L331.2,715.5l-45.1,138L173.4,364L0,449.2l303.6,864.7l110.5,2.7l15.3-79.7l60.5,77.8
					l136.1,7.3L604.8,395.7 M39.5,471.9l9.5-7.5l97.9-44.9l138.1,580l55.1-201L506.5,989L368.1,414.1l198.3,31.1l22.8,841.2
					l-88.3-5.7L415,1160.2l-12.8,30.4l-29.6,91.9l-43.3,0.5L39.5,471.9 M1357.8,1032.7l169.3,31l29.5-228.6l-473.6-19.4l76.5,498.7
					l282.3,4.6L1357.8,1032.7 M1520.3,870.8l-14,159.8l-194.5-39.4l70.9,292.5l-192.8-0.7l-67.4-434L1520.3,870.8 M1736.7,1079.6
					l-7.4-39.5l24.6,38.5l229.2-13.5l-157.7-100.9l172-12.9l-128-180.1L1712.8,879l29.7-110.9l-170.5,37.5l-14.8,277.5
					L1736.7,1079.6 M1861.1,811.8l79.1,119.7l-206.3,7.1l169.1,103.8l-122.4,8.9l-73.2-98.2l-25.8,14.5l19.6,92.6l-117.2-4
					l21.4-235.8l102.5-20.6l-34.4,148.8L1861.1,811.8 M1699.2,119.4c-35.4-22.3-56.6-35.4-63.3-39.5c-24.3-14.4-53.9-30.9-88.7-49.5
					c-3.2-1.7-24.1-11.9-62.8-30.5c13.7,58.2,22.9,96.8,27.6,115.9c16.1,65.7,26,106.6,29.7,122.5c4.4,18.8,12.1,54.1,23.2,105.9
					c-15-16.4-30.5-32.9-46.6-49.5c-0.5-0.5-8.7-8.8-24.7-25c-19.2,16.6-29.6,25.6-31,27c-2.1,2-14.8,13.7-38.1,35.1
					c-30.4,27.9-60.1,56.5-89.2,85.7c-1.3,1.4-2.7,2.7-4,4.1c-0.3-2-0.6-4.1-1-6.1c-53.7-18.9-101.7-35.8-143.9-50.7
					c24.3,103,41.9,185,52.8,246c-1.5,2.2-2.8,4.2-3.9,5.8c-4,5.9-7.8,11.3-11.5,16.2c-4,0-7.9,0-11.9,0v-0.3c-0.2,0-0.3,0-0.5,0
					c-8.5,0-17,0-25.5,0c-2.8,0-5.7,0-8.6,0h-25.6c-0.2,0-0.3,0-0.5,0v0.3c-4,0-7.9,0-11.9,0c-3.7-4.9-7.5-10.3-11.4-16.2
					c-1.2-1.7-2.5-3.6-4-5.8c10.9-60.9,28.5-142.9,52.9-246c-42.3,14.9-90.3,31.8-144,50.7c-0.3,2-0.6,4.1-0.9,6.1
					c-1.4-1.4-2.7-2.7-4.1-4.1c-29-29.2-58.7-57.8-89.1-85.7c-23.3-21.5-36-33.2-38-35.1c-1.5-1.4-11.8-10.4-31.1-27
					c-16,16.2-24.2,24.5-24.6,25c-16,16.6-31.5,33.1-46.5,49.5c11.1-51.8,18.8-87.1,23.2-105.9c3.7-15.9,13.6-56.8,29.7-122.5
					c4.7-19.1,13.9-57.8,27.7-115.9c-38.6,18.6-59.6,28.7-62.8,30.5c-34.8,18.6-64.4,35.1-88.7,49.5c-6.8,4-27.9,17.2-63.4,39.5
					c4.2,112.9,4.9,195.2,2.3,247.1c-3.4,65.7-10.2,140.3-20.5,223.9c-3.6,29.2-11,83.4-22,162.5c39.1,5.5,66.7,9.4,83,11.6
					c10.5,1.4,33.9,5.5,70,12.2c-2-47.3-3-75.5-3-84.5c24.6,20,56.8,46,96.8,78.1c0.7-0.5,1.5-1.1,2.3-1.6c0,0,0.1,0.1,0.2,0.1
					c33.4-25.1,53.3-40.1,59.6-44.9c20.7-15.8,42.5-31.8,65.2-48.2c-0.6,5.6-1.2,11.3-1.8,17c30.3,35.5,53.1,61.3,68.4,77.4h234.6
					c15.2-16.1,38-41.9,68.3-77.4c-0.6-5.7-1.2-11.4-1.8-17c22.7,16.4,44.4,32.4,65.2,48.2c6.3,4.8,26.2,19.8,59.6,44.9
					c0.1-0.1,0.1-0.1,0.2-0.1c0.8,0.5,1.6,1.1,2.3,1.6c39.9-32.1,72.1-58.2,96.8-78.1c0,9-1,37.2-3,84.5c36.1-6.7,59.5-10.7,70-12.2
					c16.2-2.2,43.9-6.1,83-11.6c-11.1-79.1-18.4-133.3-22-162.5c-10.3-83.6-17.2-158.2-20.6-223.9
					C1694.2,314.6,1695,232.3,1699.2,119.4 M1532.3,65.6c-0.7-2.8-1.4-5.5-2.2-8.1c13.2,6.9,25.6,13.6,37.2,20
					c36,19.8,69,39.5,99.2,59.1c-7.2,98.5-6.7,197.1,1.3,295.9c2.2,26.3,5.7,61.2,10.5,104.6c8,70.9,15.5,132,22.5,183.2
					c0.1,1.2,0.3,2.4,0.5,3.6c-10.3,2-24.3,4.1-41.9,6.5c-20.7,2.8-35,4.9-43.1,6.3h-0.1c2.5-34.4,5.4-73.2,8.6-116.5
					c-57.3,46.6-102.8,82.6-136.3,108.1c-4.5-3.5-9.4-7.2-14.7-11.3c-18.5-14.2-33.2-25.5-44.2-33.7c-22.7-17.1-45.8-34-69.2-50.7
					c-5.4-46.3-11.2-90.8-17.5-133.6c-1.5-10.2-3.4-22.6-5.6-37.2c32.8-33.7,63-63.5,90.8-89.5c30.6-28.6,46.5-43.6,47.9-45
					c5-4.9,9.8-9.6,14.4-14.2c23.3,23.7,61.2,64.3,113.5,121.6C1578,272.1,1554.1,149.1,1532.3,65.6 M1306.5,447.1
					c0,0.1,0.1,0.2,0.1,0.4c1,9.4,2.5,23.2,4.7,41.5c0.1,1.1,0.2,2.2,0.3,3.4l21.7,186c-18.7,21.3-36.6,41.7-53.7,61.2
					c-2.4-0.1-4.8-0.2-7.2-0.3c-4.1-0.1-8.1-0.3-12.2-0.4c-7.9,0-15.8,0-23.8,0c0-0.1,0-0.2,0-0.3c-8.1,0-16.3,0-24.4,0
					c-8.7,0-17.3,0-26,0c-2.8,0-5.7,0-8.6,0h-26.1c-8.1,0-16.3,0-24.4,0c0,0.1,0,0.2,0,0.3c-7.9,0-15.8,0-23.8,0
					c-4.1,0.1-8.2,0.3-12.2,0.4c-2.4,0.1-4.8,0.2-7.2,0.3c-17.1-19.5-35-39.9-53.7-61.2l21.7-186c0.1-1.2,0.3-2.3,0.4-3.4
					c2.1-18.3,3.7-32.1,4.7-41.5c0-0.1,0-0.2,0-0.4c0.1-1.5,0.3-2.9,0.5-4.4c3.6-1.1,7.6-2.7,12-4.8c0.3-0.1,0.7-0.3,1.1-0.5
					l50.1-19.1c7.1-2.7,12.6-4.9,16.5-6.6c-0.3,1-0.6,2.1-0.9,3.2c-9.1,31.4-17.6,67.1-25.6,107.2c-1.3,6.8-8.6,39.5-21.8,98
					c18.9,23.3,31.1,38.4,36.8,45.3c8.8,0,17.4,0,25.9,0c8.6,0,17.2,0,26.1,0c2.9,0,5.8,0,8.6,0c8.8,0,17.5,0,26,0
					c8.5,0,17.2,0,26,0c5.6-7,17.9-22.1,36.8-45.3c-13.2-58.6-20.5-91.3-21.8-98c-8-40.1-16.5-75.8-25.5-107.2
					c-0.3-1.1-0.7-2.2-1-3.2c3.9,1.7,9.4,3.9,16.6,6.6l50,19.1c0.4,0.2,0.8,0.3,1.1,0.5c4.4,2,8.4,3.6,12,4.8
					C1306.2,444.2,1306.4,445.6,1306.5,447.1 M833,57.5c-0.7,2.7-1.4,5.4-2.2,8.1c-21.8,83.5-45.7,206.5-71.7,369
					c52.4-57.3,90.2-97.8,113.5-121.6c4.5,4.6,9.3,9.4,14.3,14.2c1.4,1.4,17.3,16.4,47.9,45c27.8,26,58,55.8,90.8,89.5
					c-2.2,14.6-4.1,27-5.6,37.2c-6.3,42.8-12.1,87.3-17.5,133.6c-23.4,16.7-46.5,33.6-69.1,50.7c-10.9,8.2-25.7,19.5-44.2,33.7
					c-5.3,4.1-10.2,7.9-14.7,11.3c-33.6-25.5-79-61.5-136.3-108.1c3.2,43.3,6.1,82.2,8.6,116.5h0c-8.1-1.4-22.4-3.5-43.1-6.3
					c-17.6-2.4-31.6-4.5-41.9-6.5c0.2-1.2,0.3-2.4,0.5-3.6c7-51.2,14.5-112.3,22.5-183.2c4.9-43.4,8.4-78.3,10.5-104.6
					c8-98.8,8.5-197.4,1.3-295.9c30.2-19.7,63.2-39.4,99.2-59.1C807.4,71.1,819.8,64.4,833,57.5 M957.8,588l-5-102.3L874,422.5
					l-78,48.6L784.6,584l96.6,64.5L957.8,588 M815.3,569.8l13.1-74.2l41.8-31.2l54.2,44.5l3.5,55.8l-50.4,44.1L815.3,569.8
					 M1567.2,471.1l-78-48.6l-78.8,63.1l-5,102.3l76.6,60.5l96.5-64.5L1567.2,471.1 M1534.8,495.6l13.1,74.2l-62.2,39.1l-50.3-44.1
					l3.4-55.8l54.3-44.5L1534.8,495.6 M2021.8,562.2l-0.7-9.8l49.7-9.5l193-41.6l-21.5-213.2l-529.3,86.4l42.3,367.4l346.4-9.2
					l30.3,359l-727,0.1l65.5,245.3l858.3-20.4l-34.8-588.8l-21.9-192.3L2021.8,562.2 M2233.6,478.5l-250.3,48.8l11.5,82.5
					l250.6-35.6l50.4,697.5l-794.3,37.2l-49.3-189.7l721.6,11.7l-45.4-430l-345.6,6.8L1746.8,409l469.4-80.8L2233.6,478.5z"/>
				<path class="st0" d="M1017.2,874.5l-306.9-16.8l12.6,420l350.9-8.3L1017.2,874.5 M805.2,989.5l145-14.7l8.3,191.1l-153.3-29.3
					V989.5 M49,464.4l-9.5,7.5L329.4,1283l43.3-0.5l29.6-91.9l12.8-30.4l85.9,120.6l88.3,5.7l-22.8-841.2l-198.3-31.1L506.5,989
					L340,798.5l-55.1,201l-138.1-580L49,464.4 M1506.3,1030.6l14-159.8L1122.6,849l67.4,434l192.8,0.7l-70.9-292.5L1506.3,1030.6
					 M1940.2,931.5l-79.1-119.7l-187.7,136.6l34.4-148.8l-102.5,20.6l-21.4,235.8l117.2,4l-19.6-92.6l25.8-14.5l73.2,98.2l122.4-8.9
					l-169.1-103.8L1940.2,931.5 M830.8,65.6c0.7-2.8,1.5-5.5,2.2-8.1c-13.2,6.9-25.6,13.6-37.2,20c-36,19.8-69,39.5-99.2,59.1
					c7.2,98.5,6.7,197.1-1.3,295.9c-2.2,26.3-5.7,61.2-10.5,104.6c-8,70.9-15.5,132-22.5,183.2c-0.1,1.2-0.3,2.4-0.5,3.6
					c10.3,2,24.3,4.1,41.9,6.5c20.7,2.8,35,4.9,43.1,6.3h0c-2.5-34.4-5.4-73.2-8.6-116.5c57.3,46.6,102.8,82.6,136.3,108.1
					c4.5-3.5,9.4-7.2,14.7-11.3c18.5-14.2,33.2-25.5,44.2-33.7c22.7-17.1,45.8-34,69.1-50.7c5.4-46.3,11.2-90.8,17.5-133.6
					c1.5-10.2,3.4-22.6,5.6-37.2c-32.8-33.7-63-63.5-90.8-89.5c-30.6-28.6-46.5-43.6-47.9-45c-5-4.9-9.8-9.6-14.3-14.2
					c-23.3,23.7-61.1,64.3-113.5,121.6C785.2,272.1,809.1,149.1,830.8,65.6 M952.8,485.6l5,102.3l-76.6,60.5L784.6,584L796,471.1
					l78-48.6L952.8,485.6 M1306.6,447.5c0-0.1,0-0.2-0.1-0.4c-0.1-1.5-0.3-2.9-0.4-4.4c-3.6-1.1-7.6-2.7-12-4.8
					c-0.3-0.1-0.7-0.3-1.1-0.5l-50-19.1c-7.1-2.7-12.6-4.9-16.6-6.6c0.3,1,0.7,2.1,1,3.2c9,31.4,17.5,67.1,25.5,107.2
					c1.3,6.8,8.6,39.5,21.8,98c-18.9,23.3-31.1,38.4-36.8,45.3c-8.8,0-17.4,0-26,0c-8.6,0-17.2,0-26,0c-2.8,0-5.7,0-8.6,0
					c-8.8,0-17.5,0-26.1,0c-8.5,0-17.2,0-25.9,0c-5.6-7-17.9-22.1-36.8-45.3c13.2-58.6,20.5-91.3,21.8-98
					c8-40.1,16.5-75.8,25.6-107.2c0.3-1.1,0.6-2.2,0.9-3.2c-3.9,1.7-9.4,3.9-16.5,6.6l-50.1,19.1c-0.4,0.2-0.8,0.3-1.1,0.5
					c-4.4,2-8.4,3.6-12,4.8c-0.2,1.5-0.3,2.9-0.5,4.4c0,0.1,0,0.2,0,0.4c-1,9.4-2.5,23.2-4.7,41.5c-0.1,1.1-0.3,2.2-0.4,3.4
					l-19.7,169.3l-1.9,16.7c18.7,21.3,36.6,41.7,53.7,61.2c2.4-0.1,4.8-0.2,7.2-0.3c4.1-0.1,8.2-0.3,12.2-0.4c7.9,0,15.9,0,23.8,0
					c0-0.1,0-0.2,0-0.3c8.1,0,16.3,0,24.4,0h26.1c2.9,0,5.8,0,8.6,0c8.7,0,17.4,0,26,0c8.1,0,16.3,0,24.4,0c0,0.1,0,0.2,0,0.3
					c7.9,0,15.8,0,23.8,0c4.1,0.1,8.2,0.3,12.2,0.4c2.4,0.1,4.9,0.2,7.2,0.3c17.1-19.5,34.9-39.9,53.7-61.2l-21.7-186
					c-0.1-1.2-0.2-2.3-0.3-3.4C1309.1,470.7,1307.5,456.9,1306.6,447.5 M1530.2,57.5c0.7,2.7,1.4,5.4,2.2,8.1
					c21.8,83.5,45.7,206.5,71.8,369c-52.4-57.3-90.2-97.8-113.5-121.6c-4.5,4.6-9.3,9.4-14.4,14.2c-1.4,1.4-17.3,16.4-47.9,45
					c-27.8,26-58,55.8-90.8,89.5c2.2,14.6,4.1,27,5.6,37.2c6.3,42.8,12.1,87.3,17.5,133.6c23.4,16.7,46.4,33.6,69.2,50.7
					c10.9,8.2,25.7,19.5,44.2,33.7c5.3,4.1,10.2,7.9,14.7,11.3c33.6-25.5,79-61.5,136.3-108.1c-3.2,43.3-6.1,82.2-8.6,116.5h0.1
					c8.1-1.4,22.4-3.5,43.1-6.3c17.6-2.4,31.6-4.5,41.9-6.5c-0.2-1.2-0.3-2.4-0.5-3.6c-7-51.2-14.5-112.3-22.5-183.2
					c-4.9-43.4-8.4-78.3-10.5-104.6c-8-98.8-8.5-197.4-1.3-295.9c-30.2-19.7-63.2-39.4-99.2-59.1
					C1555.8,71.1,1543.4,64.4,1530.2,57.5 M1489.2,422.5l78,48.6l11.4,112.9l-96.5,64.5l-76.6-60.5l5-102.3L1489.2,422.5
					 M1983.3,527.3l250.3-48.8l-17.4-150.3L1746.8,409l36.1,298.5l345.6-6.8l45.4,430l-721.6-11.7l49.3,189.7l794.3-37.2
					l-50.4-697.5l-250.6,35.6L1983.3,527.3z"/>
			</g>
			<g>
				<path class="st1" d="M664.2,807.1l8.3,512.5l449.9-18.9L1047,821.8L664.2,807.1 M710.3,857.8l306.9,16.8l56.6,395l-350.9,8.3
					L710.3,857.8 M950.2,974.8l-145,14.7v147l153.3,29.3L950.2,974.8 M836,1019.7l81.6-4.2l4.2,103.5l-83.7-8.3L836,1019.7
					 M604.8,395.7L308.1,364l145.5,498.8L331.2,715.5l-45.1,138L173.4,364L0,449.2l303.6,864.7l110.5,2.7l15.3-79.7l60.5,77.8
					l136.1,7.3L604.8,395.7 M39.5,471.9l9.5-7.5l97.9-44.9l138.1,580l55.1-201L506.5,989L368.1,414.1l198.3,31.1l22.8,841.2
					l-88.3-5.7L415,1160.2l-12.8,30.4l-29.6,91.9l-43.3,0.5L39.5,471.9 M1357.8,1032.7l169.3,31l29.5-228.6l-473.6-19.4l76.5,498.7
					l282.3,4.6L1357.8,1032.7 M1520.3,870.8l-14,159.8l-194.5-39.4l70.9,292.5l-192.8-0.7l-67.4-434L1520.3,870.8 M1736.7,1079.6
					l-7.4-39.5l24.6,38.5l229.2-13.5l-157.7-100.9l172-12.9l-128-180.1L1712.8,879l29.7-110.9l-170.5,37.5l-14.8,277.5
					L1736.7,1079.6 M1861.1,811.8l79.1,119.7l-206.3,7.1l169.1,103.8l-122.4,8.9l-73.2-98.2l-25.8,14.5l19.6,92.6l-117.2-4
					l21.4-235.8l102.5-20.6l-34.4,148.8L1861.1,811.8 M1699.2,119.4c-35.4-22.3-56.6-35.4-63.3-39.5c-24.3-14.4-53.9-30.9-88.7-49.5
					c-3.2-1.7-24.1-11.9-62.8-30.5c13.7,58.2,22.9,96.8,27.6,115.9c16.1,65.7,26,106.6,29.7,122.5c4.4,18.8,12.1,54.1,23.2,105.9
					c-15-16.4-30.5-32.9-46.6-49.5c-0.5-0.5-8.7-8.8-24.7-25c-19.2,16.6-29.6,25.6-31,27c-2.1,2-14.8,13.7-38.1,35.1
					c-30.4,27.9-60.1,56.5-89.2,85.7c-1.3,1.4-2.7,2.7-4,4.1c-0.3-2-0.6-4.1-1-6.1c-53.7-18.9-101.7-35.8-143.9-50.7
					c24.3,103,41.9,185,52.8,246c-1.5,2.2-2.8,4.2-3.9,5.8c-4,5.9-7.8,11.3-11.5,16.2c-4,0-7.9,0-11.9,0v-0.3c-0.2,0-0.3,0-0.5,0
					c-8.5,0-17,0-25.5,0c-2.8,0-5.7,0-8.6,0h-25.6c-0.2,0-0.3,0-0.5,0v0.3c-4,0-7.9,0-11.9,0c-3.7-4.9-7.5-10.3-11.4-16.2
					c-1.2-1.7-2.5-3.6-4-5.8c10.9-60.9,28.5-142.9,52.9-246c-42.3,14.9-90.3,31.8-144,50.7c-0.3,2-0.6,4.1-0.9,6.1
					c-1.4-1.4-2.7-2.7-4.1-4.1c-29-29.2-58.7-57.8-89.1-85.7c-23.3-21.5-36-33.2-38-35.1c-1.5-1.4-11.8-10.4-31.1-27
					c-16,16.2-24.2,24.5-24.6,25c-16,16.6-31.5,33.1-46.5,49.5c11.1-51.8,18.8-87.1,23.2-105.9c3.7-15.9,13.6-56.8,29.7-122.5
					c4.7-19.1,13.9-57.8,27.7-115.9c-38.6,18.6-59.6,28.7-62.8,30.5c-34.8,18.6-64.4,35.1-88.7,49.5c-6.8,4-27.9,17.2-63.4,39.5
					c4.2,112.9,4.9,195.2,2.3,247.1c-3.4,65.7-10.2,140.3-20.5,223.9c-3.6,29.2-11,83.4-22,162.5c39.1,5.5,66.7,9.4,83,11.6
					c10.5,1.4,33.9,5.5,70,12.2c-2-47.3-3-75.5-3-84.5c24.6,20,56.8,46,96.8,78.1c0.7-0.5,1.5-1.1,2.3-1.6c0,0,0.1,0.1,0.2,0.1
					c33.4-25.1,53.3-40.1,59.6-44.9c20.7-15.8,42.5-31.8,65.2-48.2c-0.6,5.6-1.2,11.3-1.8,17c30.3,35.5,53.1,61.3,68.4,77.4h234.6
					c15.2-16.1,38-41.9,68.3-77.4c-0.6-5.7-1.2-11.4-1.8-17c22.7,16.4,44.4,32.4,65.2,48.2c6.3,4.8,26.2,19.8,59.6,44.9
					c0.1-0.1,0.1-0.1,0.2-0.1c0.8,0.5,1.6,1.1,2.3,1.6c39.9-32.1,72.1-58.2,96.8-78.1c0,9-1,37.2-3,84.5c36.1-6.7,59.5-10.7,70-12.2
					c16.2-2.2,43.9-6.1,83-11.6c-11.1-79.1-18.4-133.3-22-162.5c-10.3-83.6-17.2-158.2-20.6-223.9
					C1694.2,314.6,1695,232.3,1699.2,119.4 M1532.3,65.6c-0.7-2.8-1.4-5.5-2.2-8.1c13.2,6.9,25.6,13.6,37.2,20
					c36,19.8,69,39.5,99.2,59.1c-7.2,98.5-6.7,197.1,1.3,295.9c2.2,26.3,5.7,61.2,10.5,104.6c8,70.9,15.5,132,22.5,183.2
					c0.1,1.2,0.3,2.4,0.5,3.6c-10.3,2-24.3,4.1-41.9,6.5c-20.7,2.8-35,4.9-43.1,6.3h-0.1c2.5-34.4,5.4-73.2,8.6-116.5
					c-57.3,46.6-102.8,82.6-136.3,108.1c-4.5-3.5-9.4-7.2-14.7-11.3c-18.5-14.2-33.2-25.5-44.2-33.7c-22.7-17.1-45.8-34-69.2-50.7
					c-5.4-46.3-11.2-90.8-17.5-133.6c-1.5-10.2-3.4-22.6-5.6-37.2c32.8-33.7,63-63.5,90.8-89.5c30.6-28.6,46.5-43.6,47.9-45
					c5-4.9,9.8-9.6,14.4-14.2c23.3,23.7,61.2,64.3,113.5,121.6C1578,272.1,1554.1,149.1,1532.3,65.6 M1306.5,447.1
					c0,0.1,0.1,0.2,0.1,0.4c1,9.4,2.5,23.2,4.7,41.5c0.1,1.1,0.2,2.2,0.3,3.4l21.7,186c-18.7,21.3-36.6,41.7-53.7,61.2
					c-2.4-0.1-4.8-0.2-7.2-0.3c-4.1-0.1-8.1-0.3-12.2-0.4c-7.9,0-15.8,0-23.8,0c0-0.1,0-0.2,0-0.3c-8.1,0-16.3,0-24.4,0
					c-8.7,0-17.3,0-26,0c-2.8,0-5.7,0-8.6,0h-26.1c-8.1,0-16.3,0-24.4,0c0,0.1,0,0.2,0,0.3c-7.9,0-15.8,0-23.8,0
					c-4.1,0.1-8.2,0.3-12.2,0.4c-2.4,0.1-4.8,0.2-7.2,0.3c-17.1-19.5-35-39.9-53.7-61.2l21.7-186c0.1-1.2,0.3-2.3,0.4-3.4
					c2.1-18.3,3.7-32.1,4.7-41.5c0-0.1,0-0.2,0-0.4c0.1-1.5,0.3-2.9,0.5-4.4c3.6-1.1,7.6-2.7,12-4.8c0.3-0.1,0.7-0.3,1.1-0.5
					l50.1-19.1c7.1-2.7,12.6-4.9,16.5-6.6c-0.3,1-0.6,2.1-0.9,3.2c-9.1,31.4-17.6,67.1-25.6,107.2c-1.3,6.8-8.6,39.5-21.8,98
					c18.9,23.3,31.1,38.4,36.8,45.3c8.8,0,17.4,0,25.9,0c8.6,0,17.2,0,26.1,0c2.9,0,5.8,0,8.6,0c8.8,0,17.5,0,26,0
					c8.5,0,17.2,0,26,0c5.6-7,17.9-22.1,36.8-45.3c-13.2-58.6-20.5-91.3-21.8-98c-8-40.1-16.5-75.8-25.5-107.2
					c-0.3-1.1-0.7-2.2-1-3.2c3.9,1.7,9.4,3.9,16.6,6.6l50,19.1c0.4,0.2,0.8,0.3,1.1,0.5c4.4,2,8.4,3.6,12,4.8
					C1306.2,444.2,1306.4,445.6,1306.5,447.1 M833,57.5c-0.7,2.7-1.4,5.4-2.2,8.1c-21.8,83.5-45.7,206.5-71.7,369
					c52.4-57.3,90.2-97.8,113.5-121.6c4.5,4.6,9.3,9.4,14.3,14.2c1.4,1.4,17.3,16.4,47.9,45c27.8,26,58,55.8,90.8,89.5
					c-2.2,14.6-4.1,27-5.6,37.2c-6.3,42.8-12.1,87.3-17.5,133.6c-23.4,16.7-46.5,33.6-69.1,50.7c-10.9,8.2-25.7,19.5-44.2,33.7
					c-5.3,4.1-10.2,7.9-14.7,11.3c-33.6-25.5-79-61.5-136.3-108.1c3.2,43.3,6.1,82.2,8.6,116.5h0c-8.1-1.4-22.4-3.5-43.1-6.3
					c-17.6-2.4-31.6-4.5-41.9-6.5c0.2-1.2,0.3-2.4,0.5-3.6c7-51.2,14.5-112.3,22.5-183.2c4.9-43.4,8.4-78.3,10.5-104.6
					c8-98.8,8.5-197.4,1.3-295.9c30.2-19.7,63.2-39.4,99.2-59.1C807.4,71.1,819.8,64.4,833,57.5 M957.8,588l-5-102.3L874,422.5
					l-78,48.6L784.6,584l96.6,64.5L957.8,588 M815.3,569.8l13.1-74.2l41.8-31.2l54.2,44.5l3.5,55.8l-50.4,44.1L815.3,569.8
					 M1567.2,471.1l-78-48.6l-78.8,63.1l-5,102.3l76.6,60.5l96.5-64.5L1567.2,471.1 M1534.8,495.6l13.1,74.2l-62.2,39.1l-50.3-44.1
					l3.4-55.8l54.3-44.5L1534.8,495.6 M2021.8,562.2l-0.7-9.8l49.7-9.5l193-41.6l-21.5-213.2l-529.3,86.4l42.3,367.4l346.4-9.2
					l30.3,359l-727,0.1l65.5,245.3l858.3-20.4l-34.8-588.8l-21.9-192.3L2021.8,562.2 M2233.6,478.5l-250.3,48.8l11.5,82.5
					l250.6-35.6l50.4,697.5l-794.3,37.2l-49.3-189.7l721.6,11.7l-45.4-430l-345.6,6.8L1746.8,409l469.4-80.8L2233.6,478.5z"/>
				<path class="st2" d="M1017.2,874.5l-306.9-16.8l12.6,420l350.9-8.3L1017.2,874.5 M805.2,989.5l145-14.7l8.3,191.1l-153.3-29.3
					V989.5 M49,464.4l-9.5,7.5L329.4,1283l43.3-0.5l29.6-91.9l12.8-30.4l85.9,120.6l88.3,5.7l-22.8-841.2l-198.3-31.1L506.5,989
					L340,798.5l-55.1,201l-138.1-580L49,464.4 M1506.3,1030.6l14-159.8L1122.6,849l67.4,434l192.8,0.7l-70.9-292.5L1506.3,1030.6
					 M1940.2,931.5l-79.1-119.7l-187.7,136.6l34.4-148.8l-102.5,20.6l-21.4,235.8l117.2,4l-19.6-92.6l25.8-14.5l73.2,98.2l122.4-8.9
					l-169.1-103.8L1940.2,931.5 M830.8,65.6c0.7-2.8,1.5-5.5,2.2-8.1c-13.2,6.9-25.6,13.6-37.2,20c-36,19.8-69,39.5-99.2,59.1
					c7.2,98.5,6.7,197.1-1.3,295.9c-2.2,26.3-5.7,61.2-10.5,104.6c-8,70.9-15.5,132-22.5,183.2c-0.1,1.2-0.3,2.4-0.5,3.6
					c10.3,2,24.3,4.1,41.9,6.5c20.7,2.8,35,4.9,43.1,6.3h0c-2.5-34.4-5.4-73.2-8.6-116.5c57.3,46.6,102.8,82.6,136.3,108.1
					c4.5-3.5,9.4-7.2,14.7-11.3c18.5-14.2,33.2-25.5,44.2-33.7c22.7-17.1,45.8-34,69.1-50.7c5.4-46.3,11.2-90.8,17.5-133.6
					c1.5-10.2,3.4-22.6,5.6-37.2c-32.8-33.7-63-63.5-90.8-89.5c-30.6-28.6-46.5-43.6-47.9-45c-5-4.9-9.8-9.6-14.3-14.2
					c-23.3,23.7-61.1,64.3-113.5,121.6C785.2,272.1,809.1,149.1,830.8,65.6 M952.8,485.6l5,102.3l-76.6,60.5L784.6,584L796,471.1
					l78-48.6L952.8,485.6 M1306.6,447.5c0-0.1,0-0.2-0.1-0.4c-0.1-1.5-0.3-2.9-0.4-4.4c-3.6-1.1-7.6-2.7-12-4.8
					c-0.3-0.1-0.7-0.3-1.1-0.5l-50-19.1c-7.1-2.7-12.6-4.9-16.6-6.6c0.3,1,0.7,2.1,1,3.2c9,31.4,17.5,67.1,25.5,107.2
					c1.3,6.8,8.6,39.5,21.8,98c-18.9,23.3-31.1,38.4-36.8,45.3c-8.8,0-17.4,0-26,0c-8.6,0-17.2,0-26,0c-2.8,0-5.7,0-8.6,0
					c-8.8,0-17.5,0-26.1,0c-8.5,0-17.2,0-25.9,0c-5.6-7-17.9-22.1-36.8-45.3c13.2-58.6,20.5-91.3,21.8-98
					c8-40.1,16.5-75.8,25.6-107.2c0.3-1.1,0.6-2.2,0.9-3.2c-3.9,1.7-9.4,3.9-16.5,6.6l-50.1,19.1c-0.4,0.2-0.8,0.3-1.1,0.5
					c-4.4,2-8.4,3.6-12,4.8c-0.2,1.5-0.3,2.9-0.5,4.4c0,0.1,0,0.2,0,0.4c-1,9.4-2.5,23.2-4.7,41.5c-0.1,1.1-0.3,2.2-0.4,3.4
					l-19.7,169.3l-1.9,16.7c18.7,21.3,36.6,41.7,53.7,61.2c2.4-0.1,4.8-0.2,7.2-0.3c4.1-0.1,8.2-0.3,12.2-0.4c7.9,0,15.9,0,23.8,0
					c0-0.1,0-0.2,0-0.3c8.1,0,16.3,0,24.4,0h26.1c2.9,0,5.8,0,8.6,0c8.7,0,17.4,0,26,0c8.1,0,16.3,0,24.4,0c0,0.1,0,0.2,0,0.3
					c7.9,0,15.8,0,23.8,0c4.1,0.1,8.2,0.3,12.2,0.4c2.4,0.1,4.9,0.2,7.2,0.3c17.1-19.5,34.9-39.9,53.7-61.2l-21.7-186
					c-0.1-1.2-0.2-2.3-0.3-3.4C1309.1,470.7,1307.5,456.9,1306.6,447.5 M1530.2,57.5c0.7,2.7,1.4,5.4,2.2,8.1
					c21.8,83.5,45.7,206.5,71.8,369c-52.4-57.3-90.2-97.8-113.5-121.6c-4.5,4.6-9.3,9.4-14.4,14.2c-1.4,1.4-17.3,16.4-47.9,45
					c-27.8,26-58,55.8-90.8,89.5c2.2,14.6,4.1,27,5.6,37.2c6.3,42.8,12.1,87.3,17.5,133.6c23.4,16.7,46.4,33.6,69.2,50.7
					c10.9,8.2,25.7,19.5,44.2,33.7c5.3,4.1,10.2,7.9,14.7,11.3c33.6-25.5,79-61.5,136.3-108.1c-3.2,43.3-6.1,82.2-8.6,116.5h0.1
					c8.1-1.4,22.4-3.5,43.1-6.3c17.6-2.4,31.6-4.5,41.9-6.5c-0.2-1.2-0.3-2.4-0.5-3.6c-7-51.2-14.5-112.3-22.5-183.2
					c-4.9-43.4-8.4-78.3-10.5-104.6c-8-98.8-8.5-197.4-1.3-295.9c-30.2-19.7-63.2-39.4-99.2-59.1
					C1555.8,71.1,1543.4,64.4,1530.2,57.5 M1489.2,422.5l78,48.6l11.4,112.9l-96.5,64.5l-76.6-60.5l5-102.3L1489.2,422.5
					 M1983.3,527.3l250.3-48.8l-17.4-150.3L1746.8,409l36.1,298.5l345.6-6.8l45.4,430l-721.6-11.7l49.3,189.7l794.3-37.2
					l-50.4-697.5l-250.6,35.6L1983.3,527.3z"/>
			</g>
		</g>
	</g>
</g>
</svg>
