<?xml version="1.0" encoding="utf-8"?>
<!-- Generator: Adobe Illustrator 24.3.0, SVG Export Plug-In . SVG Version: 6.00 Build 0)  -->
<svg version="1.1" id="Layer_1" xmlns="http://www.w3.org/2000/svg" xmlns:xlink="http://www.w3.org/1999/xlink" x="0px" y="0px"
	 viewBox="0 0 350 124" style="enable-background:new 0 0 350 124;" xml:space="preserve">
<style type="text/css">
	.st0{fill:url(#SVGID_1_);}
	.st1{fill:#111111;}
</style>
<g id="Layer_2_1_">
	<g id="Layer_1-2">
		
			<linearGradient id="SVGID_1_" gradientUnits="userSpaceOnUse" x1="-1408.0282" y1="-1935.0248" x2="-1532.4814" y2="-1719.4656" gradientTransform="matrix(1 0 0 -1 1648 -1747)">
			<stop  offset="0" style="stop-color:#B76EFF"/>
			<stop  offset="1" style="stop-color:#FF6EF2"/>
		</linearGradient>
		<polygon class="st0" points="0,124.5 350,124.5 335,0.5 15,30.5 		"/>
	</g>
</g>
<g>
	<g>
		<path class="st1" d="M76.2,52c-0.2,0.3-0.6,0.5-0.9,0.5c-6.2,0.4-9.2,0.6-15.4,1.1c-0.3,0-0.5,0.2-0.6,0.7
			c-0.6,4.1-0.9,6.2-1.4,10.3c-0.1,0.4,0.1,0.6,0.4,0.6c3.2-0.2,4.9-0.3,8.1-0.4c0.4,0,0.7,0.1,0.8,0.4c0.2,0.3,0.2,0.7,0.2,1.2
			c-0.7,5.7-1.1,8.5-1.8,14.2c-0.1,0.5-0.2,0.9-0.5,1.2c-0.3,0.3-0.6,0.5-1,0.5c-3.3,0.1-5,0.2-8.3,0.3c-0.3,0-0.5,0.2-0.6,0.7
			c-0.6,4.2-0.9,6.2-1.4,10.4c-0.1,0.4,0.1,0.6,0.4,0.6c6.5-0.1,9.7-0.2,16.2-0.3c0.4,0,0.7,0.1,0.9,0.4c0.2,0.3,0.3,0.7,0.2,1.2
			c-0.7,5.7-1,8.6-1.7,14.3c-0.1,0.5-0.2,0.9-0.5,1.2c-0.3,0.3-0.6,0.4-1,0.4c-10.6,0-21.3,0-31.9,0c-0.4,0-0.7-0.1-0.9-0.4
			c-0.2-0.3-0.2-0.7-0.2-1.2c3.7-23.5,7.5-46.9,11.2-70.4c0.1-0.5,0.2-0.9,0.5-1.2c0.3-0.3,0.6-0.5,0.9-0.5
			c9.7-0.9,19.5-1.8,29.2-2.7c0.4,0,0.6,0.1,0.8,0.4c0.2,0.3,0.2,0.7,0.2,1.2c-0.7,5.7-1,8.6-1.7,14.3C76.6,51.3,76.4,51.7,76.2,52z
			"/>
		<path class="st1" d="M72.9,110.7c-0.2-0.3-0.1-0.8,0.1-1.4c5.1-12.1,10.1-24.3,14.9-36.5c0.1-0.3,0.2-0.6,0.1-0.9
			c-2.4-11.8-4.6-23.7-6.8-35.5c0-0.2,0-0.5,0-0.8c0.1-0.7,0.5-1.1,1.2-1.2c5.1-0.5,7.6-0.7,12.6-1.2c0.3,0,0.6,0.1,0.8,0.3
			c0.2,0.2,0.4,0.6,0.4,1c0.7,6,1.1,9,1.8,15c0.1,0.3,0.2,0.4,0.3,0.4c0.1,0,0.2-0.2,0.3-0.5c1.8-6.2,2.7-9.4,4.5-15.6
			c0.1-0.5,0.3-0.8,0.6-1.1c0.3-0.3,0.6-0.4,0.9-0.5c5-0.5,7.5-0.7,12.6-1.2c0.4,0,0.7,0.1,0.9,0.4c0.2,0.3,0.1,0.8-0.1,1.4
			c-4.2,12.8-8.7,25.5-13.3,38.1c-0.1,0.3-0.2,0.6-0.1,0.9c2.7,12.4,5.5,24.8,8.4,37.1c0,0.2,0.1,0.5,0,0.8c0,0.8-0.4,1.1-1.2,1.1
			c-5.5,0-8.2,0-13.6,0c-0.3,0-0.7-0.1-0.9-0.4c-0.3-0.3-0.4-0.6-0.4-1.1c-0.9-6.1-1.3-9.2-2.2-15.2c0-0.3-0.1-0.4-0.3-0.4
			c-0.1,0-0.3,0.2-0.4,0.5c-1.9,6.1-2.9,9.2-4.9,15.2c-0.1,0.4-0.3,0.8-0.6,1.1c-0.3,0.3-0.6,0.4-1,0.4c-5.5,0-8.2,0-13.7,0
			C73.4,111.2,73.1,111.1,72.9,110.7z"/>
		<path class="st1" d="M148.8,31.7c2.4,2,4.2,5,5.5,9c1.3,3.9,1.9,8.6,1.8,13.8c-0.1,5.1-0.9,9.6-2.3,13.6c-1.4,4-3.4,7-5.9,9.2
			c-2.5,2.2-5.4,3.3-8.6,3.4c-1.9,0.1-2.8,0.1-4.7,0.2c-0.3,0-0.5,0.3-0.5,0.7c-0.5,11.2-0.7,16.7-1.2,27.9c0,0.5-0.2,1-0.4,1.3
			c-0.2,0.3-0.6,0.5-1,0.5c-5.5,0-8.2,0-13.6,0c-0.4,0-0.7-0.2-0.9-0.5c-0.2-0.3-0.3-0.7-0.3-1.3c1.6-25.6,3.1-51.3,4.7-76.9
			c0-0.5,0.2-1,0.4-1.3c0.2-0.3,0.5-0.5,0.9-0.5c7.1-0.7,10.7-1,17.8-1.6C143.7,28.8,146.4,29.6,148.8,31.7z M139.5,61.7
			c0.8-1.3,1.2-3.3,1.3-5.9c0.1-2.6-0.2-4.5-0.9-5.9c-0.7-1.3-1.6-1.9-2.9-1.8c-0.4,0-0.6,0-1,0.1c-0.3,0-0.5,0.3-0.5,0.7
			c-0.2,5.7-0.4,8.5-0.6,14.2c0,0.5,0.1,0.7,0.5,0.7c0.4,0,0.6,0,1.1-0.1C137.7,63.7,138.7,63,139.5,61.7z"/>
		<path class="st1" d="M158.7,110.7c-0.2-0.3-0.3-0.8-0.3-1.3c0.4-26.8,0.9-53.5,1.3-80.3c0-0.6,0.1-1,0.3-1.3
			c0.2-0.3,0.5-0.5,0.9-0.6c5-0.5,7.5-0.7,12.5-1.2c0.4,0,0.7,0.1,0.9,0.4c0.2,0.3,0.3,0.7,0.3,1.3c0,21,0,42,0,63.1
			c0,0.5,0.2,0.7,0.5,0.7c6.6-0.1,9.9-0.2,16.5-0.3c0.4,0,0.7,0.2,0.9,0.5c0.2,0.3,0.4,0.8,0.4,1.4c0.1,6.5,0.2,9.7,0.3,16.2
			c0,0.6-0.1,1-0.3,1.4c-0.2,0.3-0.5,0.5-0.9,0.5c-10.8,0-21.5,0-32.3,0C159.2,111.1,158.9,111,158.7,110.7z"/>
		<path class="st1" d="M200.9,104.9c-3.6-4.8-5.4-11.2-5.6-19.4c-0.2-11.9-0.5-23.9-0.7-35.8c-0.2-8.1,1.3-14.7,4.4-19.8
			c3.1-5.1,7.3-7.9,12.6-8.4c5.3-0.5,9.7,1.6,13.1,6.2c3.5,4.7,5.5,11.3,5.9,19.7c0.7,12.4,1.4,24.7,2,37.1
			c0.5,8.4-0.9,15.2-4.1,20.1c-3.2,5-7.8,7.4-13.6,7.4C209.2,112.1,204.5,109.7,200.9,104.9z M216.3,90.2c0.5-1,0.7-2.4,0.6-4.2
			c-0.5-12.9-1-25.7-1.6-38.6c-0.1-1.8-0.4-3.2-0.9-4.1c-0.5-1-1.2-1.4-2.1-1.4c-0.9,0.1-1.5,0.6-2,1.7c-0.4,1-0.6,2.4-0.6,4.2
			c0.4,12.8,0.9,25.6,1.3,38.4c0.1,1.8,0.4,3.2,0.9,4.2c0.5,1,1.3,1.5,2.2,1.5S215.8,91.2,216.3,90.2z"/>
		<path class="st1" d="M260.1,109.3c-2.6-11-5.1-22-7.7-33c-0.1-0.4-0.3-0.6-0.4-0.6c-0.2,0-0.3,0.3-0.3,0.8
			c0.8,10.9,1.6,21.7,2.4,32.6c0,0.6,0,1.1-0.2,1.4c-0.2,0.4-0.5,0.5-0.9,0.5c-5.5,0-8.2,0-13.6,0c-0.4,0-0.7-0.2-1-0.5
			c-0.2-0.3-0.4-0.8-0.4-1.4c-1.7-28.9-3.4-57.8-5.1-86.7c0-0.6,0-1.1,0.2-1.5c0.2-0.4,0.5-0.6,0.8-0.6c7.1-0.7,10.7-1,17.8-1.6
			c3.2-0.3,6.1,0.7,8.7,3c2.7,2.3,4.9,5.7,6.7,10.1c1.8,4.4,3,9.5,3.5,15.3c0.4,4.9,0.3,9.3-0.4,13.3c-0.7,3.9-1.9,7.1-3.7,9.6
			c-0.2,0.3-0.3,0.6-0.2,1.1c3.3,12.6,6.7,25.1,10.2,37.7c0.1,0.2,0.1,0.4,0.1,0.7c0.1,1.1-0.3,1.6-1.1,1.6c-5.6,0-8.4,0-14.1,0
			C260.9,111,260.4,110.5,260.1,109.3z M249.7,40.2c-0.3,0-0.5,0.3-0.4,0.8c0.4,6,0.7,9.1,1.1,15.1c0,0.5,0.2,0.8,0.5,0.8
			c0.4,0,0.6,0,1.1-0.1c1.2-0.1,2.1-0.8,2.8-2.3c0.7-1.5,0.9-3.6,0.7-6.2c-0.2-2.7-0.7-4.8-1.6-6.2c-0.8-1.4-1.9-2.1-3.1-2
			C250.3,40.2,250.1,40.2,249.7,40.2z"/>
		<path class="st1" d="M305.4,35.8c-0.2,0.4-0.4,0.6-0.8,0.6c-6.2,0.4-9.2,0.6-15.4,1.1c-0.3,0-0.5,0.3-0.4,0.9
			c0.6,5.2,0.8,7.9,1.4,13.1c0.1,0.5,0.3,0.8,0.6,0.8c3.2-0.2,4.9-0.3,8.1-0.4c0.4,0,0.7,0.1,1,0.5c0.3,0.4,0.4,0.9,0.5,1.5
			c0.8,7.2,1.2,10.8,2.1,18c0.1,0.6,0,1.2-0.2,1.5c-0.2,0.4-0.5,0.6-0.9,0.6c-3.3,0.1-5,0.2-8.3,0.3c-0.3,0-0.5,0.3-0.4,0.8
			c0.6,5.3,0.8,7.9,1.4,13.2c0.1,0.5,0.3,0.8,0.6,0.8c6.5-0.1,9.7-0.2,16.2-0.3c0.4,0,0.7,0.2,1,0.5c0.3,0.4,0.4,0.9,0.5,1.5
			c0.9,7.3,1.3,10.9,2.2,18.1c0.1,0.6,0,1.2-0.2,1.5c-0.2,0.4-0.5,0.6-0.9,0.6c-10.6,0-21.3,0-31.9,0c-0.4,0-0.7-0.2-1-0.5
			c-0.3-0.4-0.4-0.8-0.5-1.5c-2.8-30-5.6-60-8.5-90.1c-0.1-0.6,0-1.1,0.2-1.5c0.2-0.4,0.5-0.6,0.8-0.6c9.7-0.9,19.5-1.8,29.2-2.7
			c0.4,0,0.7,0.1,0.9,0.5c0.3,0.3,0.4,0.9,0.5,1.5c0.9,7.3,1.3,10.9,2.2,18.1C305.7,34.9,305.6,35.4,305.4,35.8z"/>
	</g>
</g>
</svg>
