<?xml version="1.0" encoding="utf-8"?>
<!-- Generator: Adobe Illustrator 24.3.0, SVG Export Plug-In . SVG Version: 6.00 Build 0)  -->
<svg version="1.1" id="Layer_1" xmlns="http://www.w3.org/2000/svg" xmlns:xlink="http://www.w3.org/1999/xlink" x="0px" y="0px"
	 viewBox="0 0 350 124" style="enable-background:new 0 0 350 124;" xml:space="preserve">
<style type="text/css">
	.st0{fill:url(#SVGID_1_);}
	.st1{fill:#111111;}
</style>
<g id="Layer_2_1_">
	<g id="Layer_1-2">
		
			<linearGradient id="SVGID_1_" gradientUnits="userSpaceOnUse" x1="-1532.4814" y1="-1719.9656" x2="-1408.0282" y2="-1935.5248" gradientTransform="matrix(-1 0 0 1 -1298 1872)">
			<stop  offset="0" style="stop-color:#FF6561"/>
			<stop  offset="1" style="stop-color:#FF6EF2"/>
		</linearGradient>
		<polygon class="st0" points="350,0 0,0 15,124 335,94 		"/>
	</g>
</g>
<g>
	<g>
		<path class="st1" d="M47.2,110.4c-0.3-0.3-0.5-0.8-0.6-1.5C42.9,78,39.1,47,35.4,16.1c-0.1-0.6,0-1.2,0.2-1.5
			c0.2-0.4,0.6-0.6,1-0.6c6.4,0,9.5,0,15.9,0c0.5,0,0.9,0.2,1.2,0.5c0.3,0.4,0.5,0.9,0.6,1.5c2.5,23.5,5,47.1,7.5,70.6
			c0.1,0.5,0.3,0.8,0.7,0.8c7.3-0.5,11-0.8,18.4-1.3c0.4,0,0.8,0.1,1.1,0.5c0.3,0.3,0.5,0.8,0.5,1.4c0.6,7,0.9,10.5,1.6,17.5
			c0.1,0.6,0,1.1-0.2,1.5c-0.2,0.4-0.5,0.6-1,0.6c-11.5,1.1-23,2.1-34.5,3.2C47.8,110.9,47.5,110.7,47.2,110.4z"/>
		<path class="st1" d="M115.5,102.8c-0.6-3.8-1-5.8-1.6-9.6c0-0.2-0.1-0.3-0.2-0.5c-0.1-0.2-0.3-0.2-0.5-0.2
			c-3.3,0.3-4.9,0.4-8.2,0.7c-0.2,0-0.3,0.1-0.4,0.3c-0.1,0.2-0.2,0.4-0.1,0.5c-0.1,4-0.1,5.9-0.2,9.9c0,1.2-0.4,1.9-1.3,2
			c-5.8,0.5-8.7,0.8-14.5,1.3c-1,0.1-1.4-0.6-1.4-2c1.8-29.9,4-59.7,6.6-89.5c0.1-1.1,0.6-1.7,1.6-1.7c7.3,0,11,0,18.3,0
			c0.9,0,1.5,0.6,1.8,1.7c6.2,28.4,12.2,56.8,17.9,85.4c0,0.2,0,0.3,0,0.5c0,1-0.4,1.6-1.2,1.6c-5.9,0.5-8.9,0.8-14.8,1.4
			C116.1,104.6,115.6,104,115.5,102.8z M105.5,74.2c1.8-0.1,2.7-0.2,4.5-0.3c0.4,0,0.6-0.3,0.4-0.8c-1.6-9.3-2.4-14-4.1-23.3
			c-0.1-0.3-0.2-0.5-0.3-0.5c-0.1,0-0.2,0.2-0.3,0.5c-0.3,9.4-0.5,14.1-0.7,23.6C105,73.9,105.2,74.2,105.5,74.2z"/>
		<path class="st1" d="M172.9,14.4c0.3,0.3,0.4,0.8,0.4,1.3c0,6.4,0,9.6,0,16c0,0.6-0.1,1-0.4,1.4c-0.3,0.3-0.6,0.5-1.1,0.5
			c-4.7,0.1-7,0.1-11.6,0.2c-0.4,0-0.6,0.3-0.6,0.8c0.3,21.4,0.6,42.7,1,64.1c0,0.6-0.1,1-0.3,1.4c-0.2,0.4-0.6,0.5-1,0.6
			c-5.8,0.5-8.7,0.8-14.6,1.3c-0.4,0-0.8-0.1-1-0.4c-0.3-0.3-0.4-0.8-0.4-1.4c-0.7-21.7-1.4-43.5-2.1-65.2c0-0.5-0.2-0.8-0.6-0.7
			c-4.5,0.1-6.8,0.1-11.4,0.2c-0.5,0-0.8-0.2-1.1-0.5c-0.3-0.3-0.4-0.8-0.5-1.4c-0.3-6.7-0.5-10-0.8-16.7c0-0.6,0.1-1.1,0.3-1.4
			c0.3-0.3,0.6-0.5,1.1-0.5c14.5,0,29.1,0,43.6,0C172.3,13.9,172.7,14,172.9,14.4z"/>
		<path class="st1" d="M216.8,32.2c-0.3,0.3-0.6,0.5-1.1,0.5c-7.5,0.2-11.3,0.2-18.9,0.4c-0.4,0-0.6,0.3-0.6,0.7
			c-0.1,4.6-0.1,6.9-0.2,11.4c0,0.5,0.2,0.7,0.6,0.7c3.9-0.1,5.8-0.2,9.6-0.3c0.5,0,0.8,0.1,1.1,0.4c0.2,0.3,0.4,0.7,0.3,1.3
			c-0.2,6.2-0.3,9.3-0.5,15.4c0,0.6-0.2,1-0.4,1.3c-0.3,0.3-0.6,0.5-1.1,0.5c-3.8,0.2-5.7,0.3-9.5,0.5c-0.4,0-0.6,0.3-0.6,0.7
			c-0.1,4.6-0.2,6.9-0.3,11.6c0,0.5,0.2,0.7,0.5,0.7c7.2-0.5,10.8-0.8,18-1.3c0.4,0,0.8,0.1,1,0.4c0.2,0.3,0.3,0.7,0.3,1.3
			c-0.3,6.1-0.4,9.2-0.7,15.3c0,0.5-0.2,1-0.4,1.3c-0.3,0.3-0.6,0.5-1,0.6c-11.4,1.1-22.7,2.1-34.1,3.2c-0.4,0-0.8-0.1-1-0.4
			c-0.2-0.3-0.4-0.7-0.4-1.3c0.1-27.1,0.1-54.3,0.2-81.4c0-0.6,0.1-1,0.4-1.3c0.3-0.3,0.6-0.5,1.1-0.5c12.4,0,24.8,0,37.2,0
			c0.5,0,0.8,0.2,1.1,0.5c0.3,0.3,0.4,0.7,0.3,1.3c-0.3,6.1-0.4,9.2-0.7,15.3C217.3,31.4,217.1,31.8,216.8,32.2z"/>
		<path class="st1" d="M227.5,92.4c-2.8-1.6-5-3.9-6.5-7.1c-1.5-3.1-2.1-6.9-1.9-11.1c0.1-1.4,0.1-2.2,0.2-3.6c0-0.5,0.2-1,0.4-1.3
			c0.3-0.3,0.6-0.5,1.1-0.5c5.9-0.4,8.9-0.5,14.8-0.9c0.4,0,0.8,0.1,1,0.4c0.2,0.3,0.3,0.7,0.3,1.2c-0.1,1-0.1,1.5-0.2,2.5
			c-0.1,1.2,0.1,2.2,0.5,2.9c0.4,0.7,1,1.1,1.8,1s1.4-0.4,2-1.2c0.6-0.7,0.9-1.6,1-2.7c0.1-1.3-0.3-2.5-1.2-3.7
			c-0.9-1.2-2.9-3.1-6-5.6c-3-2.5-5.5-4.8-7.5-6.9c-2-2.1-3.6-4.9-5-8.2c-1.4-3.3-2-7.2-1.8-11.6c0.2-4.6,1.3-8.6,3.2-12.1
			c1.9-3.5,4.6-6.2,7.9-8.1c3.4-1.9,7.2-2.9,11.4-2.9c4.3,0,8,0.9,11.1,2.8c3.1,1.9,5.4,4.5,6.8,7.8c1.4,3.3,1.9,7.2,1.5,11.5
			c-0.1,1-0.1,1.5-0.2,2.4c-0.1,0.5-0.2,0.9-0.5,1.2c-0.3,0.3-0.7,0.5-1.1,0.5c-6.1,0.2-9.1,0.3-15.2,0.4c-0.5,0-0.8-0.1-1-0.4
			c-0.2-0.3-0.3-0.7-0.3-1.2c0.1-1.2,0.1-1.8,0.2-2.9c0.1-1.1-0.1-2.1-0.6-2.8c-0.5-0.7-1.1-1.1-2-1c-0.9,0-1.6,0.4-2.1,1.2
			c-0.5,0.8-0.9,1.8-1,3.1c-0.1,1.5,0.3,3,1.3,4.3c0.9,1.4,2.9,3.3,5.8,5.9c3.9,3.4,6.7,6.1,8.6,8.2c1.9,2.1,3.3,4.4,4.2,7.1
			c0.9,2.6,1.2,5.8,0.8,9.4c-0.7,6.7-3,12.2-7,16.6c-4,4.3-8.9,6.8-14.8,7.4C233.8,94.6,230.4,94,227.5,92.4z"/>
		<path class="st1" d="M314.4,14.2c0.2,0.3,0.3,0.7,0.2,1.2c-0.9,5.5-1.3,8.3-2.2,13.8c-0.1,0.5-0.3,0.9-0.6,1.2
			c-0.3,0.3-0.7,0.4-1.2,0.4c-4.7,0.1-7,0.1-11.6,0.2c-0.4,0-0.6,0.2-0.7,0.7c-2.6,18.4-5.2,36.8-7.8,55.3c-0.1,0.5-0.2,0.9-0.5,1.2
			c-0.3,0.3-0.6,0.5-1.1,0.5c-5.8,0.5-8.7,0.8-14.6,1.3c-0.4,0-0.8-0.1-1-0.3c-0.2-0.3-0.3-0.7-0.2-1.2c2.2-18.8,4.4-37.6,6.6-56.4
			c0.1-0.4-0.1-0.6-0.5-0.6c-4.5,0.1-6.8,0.1-11.4,0.2c-0.5,0-0.8-0.1-1-0.4c-0.2-0.3-0.3-0.7-0.3-1.2c0.6-5.8,0.9-8.7,1.5-14.5
			c0.1-0.5,0.2-0.9,0.5-1.2c0.3-0.3,0.7-0.4,1.2-0.4c14.5,0,29.1,0,43.6,0C313.8,13.7,314.2,13.9,314.4,14.2z"/>
	</g>
</g>
</svg>
