<?xml version="1.0" encoding="utf-8"?>
<!-- Generator: Adobe Illustrator 24.3.0, SVG Export Plug-In . SVG Version: 6.00 Build 0)  -->
<svg version="1.1" id="Layer_1" xmlns="http://www.w3.org/2000/svg" xmlns:xlink="http://www.w3.org/1999/xlink" x="0px" y="0px"
	 viewBox="0 0 350 124" style="enable-background:new 0 0 350 124;" xml:space="preserve">
<style type="text/css">
	.st0{fill:url(#SVGID_1_);}
	.st1{fill:#111111;}
</style>
<g id="Layer_2_1_">
	<g id="Layer_1-2">
		
			<linearGradient id="SVGID_1_" gradientUnits="userSpaceOnUse" x1="234.4814" y1="2026.0344" x2="110.0282" y2="1810.4752" gradientTransform="matrix(1 0 0 1 0 -1874)">
			<stop  offset="0" style="stop-color:#FF6561"/>
			<stop  offset="1" style="stop-color:#FFB647"/>
		</linearGradient>
		<polygon class="st0" points="0,0 15,124 335,94 350,0 		"/>
	</g>
</g>
<g>
	<g>
		<path class="st1" d="M79.1,105.6c-0.8-4-1.3-6-2.1-10c0-0.2-0.1-0.4-0.3-0.5c-0.2-0.2-0.3-0.2-0.6-0.2c-3.7,0.3-5.6,0.4-9.3,0.7
			c-0.2,0-0.4,0.1-0.5,0.3c-0.1,0.2-0.2,0.4-0.2,0.6c0,4.1,0,6.2,0,10.3c0.1,1.3-0.4,2-1.5,2.1c-6.6,0.6-9.9,0.9-16.5,1.5
			c-1.1,0.1-1.7-0.6-1.6-2.1c1.3-31,2.9-62,5-93c0.1-1.2,0.7-1.8,1.8-1.8c8.3,0,12.5,0,20.8,0c1.1,0,1.8,0.6,2.1,1.7
			c7.9,29.4,15.5,58.8,22.9,88.3c0,0.2,0,0.3,0,0.5c0.1,1.1-0.4,1.6-1.3,1.7c-6.7,0.6-10.1,0.9-16.9,1.6
			C79.9,107.4,79.3,106.9,79.1,105.6z M67,75.9c2-0.1,3-0.2,5.1-0.3c0.5,0,0.7-0.3,0.5-0.8c-2.1-9.6-3.2-14.5-5.3-24.2
			c-0.1-0.4-0.2-0.5-0.4-0.5c-0.1,0-0.2,0.2-0.3,0.6c-0.1,9.8-0.1,14.7-0.2,24.5C66.4,75.7,66.6,76,67,75.9z"/>
		<path class="st1" d="M143.3,95.1c-4.2,4.6-9.5,7.3-16,7.9c-8.8,0.8-13.3,1.2-22.1,2c-0.5,0-0.9-0.1-1.2-0.4
			c-0.3-0.3-0.5-0.8-0.5-1.4c-2.1-29.3-4.2-58.6-6.3-87.9c0-0.6,0.1-1.1,0.4-1.4c0.3-0.3,0.7-0.5,1.2-0.5c8.3,0,12.4,0,20.7,0
			s14.9,2.1,19.7,6.2s7.3,10.2,7.5,18.5c0.2,7.7-1.7,13.5-5.8,17.4c-0.4,0.4-0.4,0.6-0.2,0.9c5.5,4.5,8.3,11.1,8.5,19.9
			C149.5,84.2,147.5,90.5,143.3,95.1z M119.7,34.9c0.3,5.1,0.4,7.7,0.7,12.9c0,0.5,0.3,0.8,0.7,0.7c0.2,0,0.3,0,0.6,0
			c3.3-0.1,4.9-2.6,4.6-7.3c-0.2-4.8-2-7.1-5.4-7.1c-0.2,0-0.3,0-0.6,0C119.9,34.1,119.7,34.4,119.7,34.9z M127.9,80.2
			c0.8-1.5,1.1-3.5,1-6.2c-0.1-2.6-0.6-4.7-1.5-6.3c-0.9-1.5-2.1-2.3-3.4-2.2c-0.8,0-1.2,0.1-2,0.1c-0.4,0-0.6,0.3-0.6,0.8
			c0.3,6.2,0.5,9.3,0.8,15.4c0,0.5,0.3,0.8,0.7,0.7c0.7-0.1,1.1-0.1,1.8-0.1C126,82.4,127.1,81.7,127.9,80.2z"/>
		<path class="st1" d="M159.9,93.8c-4.3-4.4-6.6-10.7-6.8-18.9c-0.3-12-0.5-23.9-0.8-35.9c-0.2-8.1,1.9-14.7,6.4-19.5
			s10.7-7.2,18.4-7.2s13.9,2.3,18.3,6.9c4.5,4.6,6.6,10.7,6.4,18.4c-0.3,11.4-0.6,22.8-1,34.1c-0.2,7.7-2.5,14.1-6.9,19
			c-4.4,5-10,7.8-17.1,8.5C169.9,100.1,164.3,98.2,159.9,93.8z M179.7,78.2c0.6-1,1-2.4,1-4.1c0.1-12.3,0.1-24.5,0.2-36.8
			c0-1.7-0.3-3-1-4s-1.6-1.4-2.8-1.4s-2.1,0.5-2.8,1.5s-1,2.3-1,4c0,12.4,0,24.7,0.1,37.1c0,1.7,0.3,3,1,4c0.6,0.9,1.5,1.4,2.7,1.3
			C178.1,79.8,179,79.2,179.7,78.2z"/>
		<path class="st1" d="M215.7,92.6c-3.3-1.8-5.9-4.5-7.7-8.2s-2.6-8.1-2.4-13.1c0.6-18.7,1.2-37.5,1.9-56.2c0-0.5,0.2-1,0.5-1.3
			s0.7-0.5,1.3-0.5c7.2,0,10.8,0,18.1,0c0.5,0,0.9,0.2,1.2,0.5s0.4,0.7,0.4,1.3c-1.1,19-2.1,38.1-3.2,57.1c-0.1,1.3,0.2,2.3,0.7,3.1
			c0.5,0.7,1.3,1.1,2.2,1s1.7-0.5,2.3-1.3s0.9-1.8,1-3.1c1.2-18.9,2.4-37.8,3.6-56.7c0-0.5,0.2-1,0.5-1.3s0.8-0.5,1.3-0.5
			c7.2,0,10.8,0,18.1,0c0.5,0,0.9,0.1,1.2,0.4c0.3,0.3,0.4,0.7,0.3,1.2c-1.6,17.8-3.1,35.6-4.7,53.4c-0.4,4.8-1.8,9.1-4,12.9
			s-5.1,6.9-8.7,9.3c-3.6,2.3-7.6,3.8-12.1,4.2C223,95.1,219.1,94.4,215.7,92.6z"/>
		<path class="st1" d="M314.3,13.7c0.3,0.3,0.4,0.7,0.3,1.2c-0.9,5.5-1.3,8.3-2.2,13.8c-0.1,0.5-0.3,0.9-0.6,1.2
			c-0.3,0.3-0.8,0.4-1.3,0.4c-5.3,0.1-7.9,0.2-13.2,0.3c-0.4,0-0.7,0.2-0.8,0.7c-2.6,18.5-5.1,36.9-7.7,55.4
			c-0.1,0.5-0.3,0.9-0.6,1.2c-0.3,0.3-0.7,0.5-1.2,0.5c-6.6,0.6-9.9,0.9-16.6,1.5c-0.5,0-0.9-0.1-1.1-0.3c-0.2-0.3-0.3-0.7-0.3-1.2
			c2.1-18.9,4.2-37.8,6.4-56.7c0-0.4-0.2-0.7-0.6-0.6c-5.2,0.1-7.7,0.2-12.9,0.3c-0.5,0-0.9-0.1-1.2-0.4c-0.3-0.3-0.4-0.7-0.3-1.2
			c0.5-5.8,0.8-8.8,1.4-14.6c0-0.5,0.2-0.9,0.6-1.2c0.3-0.3,0.8-0.4,1.3-0.4c16.5,0,33,0,49.5,0C313.7,13.2,314.1,13.4,314.3,13.7z"
			/>
	</g>
</g>
</svg>
